<?xml version="1.0" encoding="UTF-8"?>
<svg width="512" height="512" viewBox="0 0 512 512" fill="none" xmlns="http://www.w3.org/2000/svg">
  <rect width="512" height="512" rx="128" fill="#009DFF"/>
  <path d="M256 128C179.307 128 117.333 189.974 117.333 266.667C117.333 311.147 136.853 351.147 168.107 377.813L168.533 378.24C169.813 379.52 170.667 380.373 170.667 384V405.333C170.667 428.373 189.627 447.333 212.667 447.333H299.333C322.373 447.333 341.333 428.373 341.333 405.333V384C341.333 380.373 342.187 379.52 343.467 378.24L343.893 377.813C375.147 351.147 394.667 311.147 394.667 266.667C394.667 189.974 332.693 128 256 128ZM256 170.667C308.587 170.667 352 214.08 352 266.667C352 296.107 339.627 322.347 319.573 340.373C311.147 347.947 305.067 358.4 305.067 370.347V405.333C305.067 408.107 302.72 410.453 299.947 410.453H212.053C209.28 410.453 206.933 408.107 206.933 405.333V370.347C206.933 358.4 200.853 347.947 192.427 340.373C172.373 322.347 160 296.107 160 266.667C160 214.08 203.413 170.667 256 170.667Z" fill="white"/>
  <path d="M256 213.333C227.413 213.333 204.373 236.373 204.373 264.96C204.373 289.707 222.293 310.187 246.187 314.347V328.107C246.187 330.88 248.533 333.227 251.307 333.227H260.693C263.467 333.227 265.813 330.88 265.813 328.107V314.347C289.707 310.187 307.627 289.707 307.627 264.96C307.627 236.373 284.587 213.333 256 213.333ZM256 277.333C249.173 277.333 243.627 271.787 243.627 264.96C243.627 258.133 249.173 252.587 256 252.587C262.827 252.587 268.373 258.133 268.373 264.96C268.373 271.787 262.827 277.333 256 277.333Z" fill="white"/>
</svg>